<?xml version="1.0" standalone="no"?>
<!DOCTYPE svg PUBLIC "-//W3C//DTD SVG 20010904//EN"
 "http://www.w3.org/TR/2001/REC-SVG-20010904/DTD/svg10.dtd">
<svg version="1.0" xmlns="http://www.w3.org/2000/svg"
 width="480.000000pt" height="480.000000pt" viewBox="0 0 480.000000 480.000000"
 preserveAspectRatio="xMidYMid meet">
<metadata>
Created by potrace 1.14, written by Peter Selinger 2001-2017
</metadata>
<g transform="translate(0.000000,480.000000) scale(0.100000,-0.100000)"
fill="#000000" stroke="none">
<path d="M2346 4675 c4 -34 3 -35 -18 -23 -13 7 -30 18 -38 24 -8 7 -25 15
-37 18 -19 6 -23 4 -23 -17 0 -28 -27 -33 -35 -6 -8 24 -35 33 -35 11 0 -9 -7
-25 -14 -35 -13 -16 -14 -16 -20 5 -5 19 -8 20 -16 8 -8 -12 -10 -12 -10 5 0
15 -2 17 -9 6 -7 -11 -9 -11 -13 0 -4 11 -11 9 -29 -7 -18 -17 -29 -20 -46
-13 -26 9 -28 6 -12 -22 8 -16 7 -20 -3 -18 -7 1 -26 -3 -41 -9 -16 -7 -33 -9
-39 -6 -7 4 -8 2 -4 -4 4 -8 0 -12 -11 -12 -17 -1 -17 -1 0 -11 29 -17 19 -28
-23 -23 -26 3 -40 1 -40 -7 0 -8 -5 -7 -17 2 -17 13 -17 13 0 -13 21 -33 21
-39 2 -32 -8 4 -15 1 -15 -5 0 -6 -7 -8 -17 -4 -13 5 -15 3 -9 -12 4 -11 4
-17 1 -13 -4 3 -20 2 -36 -2 -17 -5 -29 -5 -29 1 0 5 -4 9 -10 9 -18 0 -11
-18 10 -25 32 -10 24 -21 -26 -35 -27 -8 -41 -16 -33 -20 8 -6 7 -10 -6 -17
-9 -5 -16 -14 -16 -19 1 -5 -12 -12 -28 -16 -16 -5 -35 -16 -42 -25 -10 -11
-10 -14 -1 -9 6 4 12 3 12 -2 0 -6 -23 -27 -51 -47 -40 -28 -49 -39 -38 -46 8
-5 9 -9 4 -9 -16 0 -84 -95 -89 -125 -3 -15 -10 -33 -17 -41 -6 -8 -8 -14 -4
-14 4 0 3 -6 -2 -12 -6 -7 -13 -25 -17 -39 -3 -15 -20 -49 -38 -75 -51 -76
-60 -101 -40 -109 14 -5 14 -7 2 -15 -12 -8 -12 -10 -1 -10 11 0 11 -3 0 -17
-8 -9 -13 -25 -11 -35 2 -11 -2 -26 -8 -34 -9 -10 -9 -14 -1 -14 6 0 11 -7 11
-16 0 -9 -5 -12 -12 -8 -9 5 -9 2 1 -9 11 -14 11 -21 -3 -42 -9 -14 -12 -25
-7 -25 13 0 23 -47 24 -112 0 -32 3 -55 7 -53 10 6 17 -82 8 -98 -7 -14 4 -39
17 -39 4 0 11 6 16 13 16 27 20 0 5 -36 -23 -53 -19 -67 5 -22 25 48 35 43 14
-6 -19 -47 -19 -50 5 -44 24 6 26 -5 5 -23 -16 -13 -21 -40 -7 -40 4 0 7 -11
7 -25 0 -14 -3 -25 -7 -25 -5 0 -8 -7 -8 -17 0 -15 2 -15 19 1 19 17 19 17 14
-3 -3 -12 -1 -27 5 -34 8 -9 6 -16 -7 -24 -10 -7 -23 -26 -29 -43 -6 -17 -7
-28 -2 -25 5 3 12 0 15 -6 4 -5 14 -8 22 -5 12 5 13 0 8 -25 -9 -40 8 -31 31
16 14 29 14 44 4 102 -14 86 -23 102 -44 84 -12 -10 -16 -10 -16 -1 0 6 9 14
19 17 17 4 19 12 15 60 -2 30 -6 58 -8 62 -3 4 1 19 8 33 9 17 10 31 4 42 -7
12 -5 24 5 39 10 15 12 29 5 46 -8 22 -7 22 9 10 13 -11 15 -11 9 -1 -5 9 0
22 15 38 12 13 19 24 16 24 -4 0 5 14 20 31 16 17 29 36 29 42 1 7 3 14 4 17
1 3 3 24 4 48 2 24 7 47 13 50 6 4 10 18 8 32 -4 38 31 109 58 119 13 5 27 16
30 25 7 19 75 14 124 -9 32 -15 36 -15 52 -1 23 21 31 20 31 -3 0 -15 9 -20
46 -23 25 -2 48 0 50 4 3 4 22 7 42 6 21 0 46 4 57 9 11 6 43 14 70 18 47 7
107 35 75 35 -12 0 -12 2 -1 13 11 10 14 10 18 0 6 -16 35 -17 51 -1 8 8 15 8
27 -2 12 -10 18 -10 30 0 12 10 15 10 15 -2 0 -11 7 -14 24 -11 13 3 33 0 44
-6 15 -8 23 -8 27 0 4 6 18 8 32 5 27 -7 48 9 63 49 5 14 14 23 20 20 5 -3 10
-2 10 4 0 5 -4 12 -9 15 -5 3 -8 14 -6 24 12 60 16 72 26 72 6 0 7 -6 3 -12
-6 -9 -3 -9 9 0 9 8 20 11 26 8 5 -3 12 1 15 10 3 9 13 14 21 11 7 -3 28 -2
44 3 18 5 33 5 36 -1 4 -5 15 -9 27 -9 11 0 66 -22 122 -49 78 -38 108 -58
127 -85 13 -20 32 -39 43 -42 15 -5 16 -8 5 -15 -11 -7 -11 -9 2 -9 18 0 33
-26 23 -42 -3 -5 12 -26 33 -46 22 -20 46 -46 54 -56 11 -16 8 -15 -18 4 -18
13 -35 32 -39 42 -3 10 -10 18 -15 18 -11 0 6 -36 29 -63 15 -16 14 -17 -2
-11 -16 6 -17 4 -8 -12 5 -10 22 -32 37 -48 15 -16 20 -26 11 -23 -18 7 -21
-4 -6 -19 19 -19 69 -178 59 -185 -7 -4 -7 -18 0 -45 14 -50 14 -54 -2 -48
-11 4 -14 -16 -15 -93 -1 -54 -5 -117 -8 -141 -5 -35 -3 -46 12 -57 10 -7 26
-11 36 -10 20 4 26 -29 8 -40 -5 -3 -10 -12 -10 -18 1 -7 9 -2 20 11 14 17 18
34 14 70 -2 26 -7 55 -10 66 -3 10 -2 16 3 13 5 -3 7 7 5 25 -4 23 -2 29 8 23
10 -6 11 -1 5 26 -4 19 -7 54 -6 77 1 24 -2 41 -6 39 -5 -3 -16 14 -25 39 -8
24 -12 41 -7 39 4 -3 9 0 12 7 2 7 3 6 2 -2 -3 -25 25 -74 36 -63 11 11 2 43
-13 43 -5 0 -6 5 -3 10 4 6 0 22 -9 35 -9 13 -16 29 -16 35 0 6 -11 28 -25 51
-14 22 -23 44 -20 48 2 5 -2 14 -10 21 -19 16 -19 31 0 24 7 -3 21 -25 31 -49
9 -24 22 -46 29 -49 7 -2 16 -23 20 -45 4 -23 11 -43 16 -46 10 -7 24 39 15
53 -3 4 1 20 9 35 8 15 11 27 8 27 -3 0 0 7 7 15 10 13 10 19 -3 33 -12 13
-14 21 -6 29 8 8 8 13 0 17 -6 4 -11 12 -11 17 0 6 5 7 10 4 14 -9 13 8 -2 23
-9 9 -9 12 1 12 10 0 11 3 2 14 -9 11 -9 15 1 19 8 3 6 6 -6 6 -12 1 -16 6
-12 17 4 9 1 23 -5 30 -12 14 -3 19 29 15 16 -2 15 4 -4 41 -15 28 -14 31 5
45 26 18 26 24 1 50 -19 21 -19 22 0 28 19 6 19 7 0 37 -10 18 -16 36 -13 40
3 5 -4 12 -16 15 -23 6 -27 18 -10 29 8 5 8 9 -1 14 -7 4 -13 22 -14 39 0 17
-6 33 -12 35 -18 7 -46 69 -34 76 5 3 -6 21 -25 39 -19 18 -34 37 -32 44 2 11
-4 13 -40 16 -16 1 -16 3 -3 11 10 6 11 10 3 10 -20 0 -15 20 5 20 13 0 14 2
3 9 -11 7 -11 9 0 14 9 3 6 6 -7 6 -11 1 -25 -4 -32 -11 -9 -9 -12 -9 -12 0 0
7 5 12 10 12 6 0 10 5 10 11 0 7 -7 8 -17 4 -30 -12 -74 -16 -68 -5 3 6 1 10
-6 10 -8 0 -8 4 1 15 11 14 10 14 -14 5 -39 -14 -42 -13 -20 11 19 22 19 22
-3 10 -12 -6 -33 -15 -48 -21 -25 -10 -26 -9 -11 11 8 12 27 30 41 39 17 11
23 20 16 25 -6 3 -34 -10 -62 -30 -28 -20 -48 -31 -43 -24 5 9 1 10 -17 6 -22
-6 -22 -5 4 16 16 12 29 29 30 38 2 10 9 25 17 34 28 33 21 72 -8 43 -6 -6
-22 -12 -36 -14 -20 -2 -25 2 -28 24 -2 15 -8 26 -14 25 -7 -1 -10 6 -7 17 6
24 -4 26 -28 4 -16 -15 -17 -14 -12 5 4 15 1 21 -11 21 -9 0 -32 9 -53 20 -26
14 -41 16 -55 9 -12 -6 -18 -6 -18 1 0 5 -11 9 -25 8 -14 -1 -25 -5 -25 -9 0
-8 -45 -4 -59 6 -6 3 -11 1 -11 -5 0 -6 -4 -9 -9 -5 -6 3 -14 -3 -20 -12 -9
-17 -11 -17 -25 2 -8 11 -16 16 -16 10 0 -5 -5 -3 -10 5 -6 10 -10 11 -10 3 0
-7 -7 -13 -15 -13 -8 0 -15 6 -15 14 0 8 -4 17 -9 21 -6 3 -8 -10 -5 -30z
m764 -735 c6 -11 8 -20 6 -20 -3 0 -10 9 -16 20 -6 11 -8 20 -6 20 3 0 10 -9
16 -20z m-690 -50 c0 -5 -5 -10 -11 -10 -5 0 -7 5 -4 10 3 6 8 10 11 10 2 0 4
-4 4 -10z m-296 -39 c3 -5 -10 -11 -29 -13 -36 -4 -36 6 0 15 11 3 21 5 22 6
1 0 4 -3 7 -8z m1041 -234 c33 -54 62 -132 45 -122 -4 3 -11 17 -15 32 -3 15
-20 45 -36 67 -16 22 -29 44 -29 48 0 18 16 6 35 -25z m29 7 c9 -24 2 -26 -12
-4 -7 11 -8 20 -3 20 5 0 12 -7 15 -16z m92 -92 c2 -8 0 -8 -3 -1 -4 8 -7 8
-13 -1 -5 -8 -9 -7 -14 5 -4 12 -1 16 11 13 9 -2 18 -9 19 -16z m-1916 -42 c0
-5 -5 -10 -11 -10 -5 0 -7 5 -4 10 3 6 8 10 11 10 2 0 4 -4 4 -10z m-11 -64
c0 5 8 19 16 30 14 18 14 18 9 -3 -3 -12 -17 -31 -30 -44 -23 -21 -24 -21 -24
-3 0 10 3 30 7 44 l7 25 7 -30 c4 -16 7 -25 8 -19z m11 -81 c-7 -8 -18 -15
-24 -15 -6 0 -3 7 7 14 19 15 24 31 5 20 -7 -5 -8 -3 -3 5 5 9 10 10 18 2 7
-7 6 -15 -3 -26z m-41 -28 c0 -21 -1 -21 -9 -2 -12 28 -12 37 0 30 6 -3 10
-16 9 -28z m54 -28 c5 -3 2 -9 -7 -12 -12 -5 -16 0 -16 15 0 12 3 17 8 12 4
-5 11 -12 15 -15z m1824 -51 c-3 -8 -6 -5 -6 6 -1 11 2 17 5 13 3 -3 4 -12 1
-19z m-1830 -43 c0 -8 -6 -15 -13 -15 -8 0 -11 6 -8 15 4 8 9 15 13 15 4 0 8
-7 8 -15z m26 -272 c-4 -11 -3 -14 5 -9 7 4 12 3 12 -3 0 -17 -17 -21 -30 -6
-12 14 -6 35 10 35 5 0 6 -7 3 -17z"/>
<path d="M1983 3352 c-13 -2 -23 -10 -23 -19 0 -11 -5 -13 -17 -7 -34 17 -205
10 -255 -10 -27 -10 -48 -22 -48 -25 0 -4 -25 -37 -55 -74 -31 -37 -52 -67
-48 -67 5 0 2 -4 -5 -9 -11 -7 -11 -9 2 -14 9 -4 15 -3 15 1 -1 4 -1 16 0 26
1 21 11 17 15 -6 1 -7 7 -23 14 -35 15 -27 16 -44 1 -23 -9 13 -10 13 -6 0 2
-10 19 -15 53 -17 39 -1 43 0 19 6 -28 7 -27 8 25 19 107 22 140 24 140 12 0
-7 6 -10 14 -7 8 3 20 -1 28 -10 11 -14 10 -16 -9 -11 -13 4 -23 2 -23 -3 0
-5 17 -9 38 -9 46 -1 25 -15 -36 -24 -59 -9 -138 -52 -167 -91 -37 -47 -30
-54 13 -13 40 39 80 63 90 54 3 -3 1 -6 -5 -6 -6 0 -38 -25 -72 -55 -34 -30
-66 -55 -71 -55 -16 0 -11 -17 7 -24 10 -4 28 1 45 14 30 22 53 26 63 10 3 -5
19 -10 34 -10 41 0 91 -11 91 -20 0 -5 -22 -16 -50 -25 -27 -9 -50 -18 -50
-20 0 -1 21 -3 48 -3 105 1 162 -4 162 -13 0 -5 5 -9 10 -9 6 0 9 3 9 8 -3 20
3 22 18 7 16 -16 18 -16 30 1 12 16 15 17 23 4 7 -11 13 -12 32 -3 13 7 33 14
44 18 30 8 64 91 64 154 0 28 -9 70 -21 98 -15 35 -21 68 -20 118 1 80 -6 125
-20 125 -6 0 -5 -9 2 -21 9 -17 8 -20 -2 -17 -8 3 -16 15 -20 29 -4 13 -8 17
-8 9 -1 -11 -8 -8 -23 10 -11 14 -25 24 -30 22 -5 -1 -17 1 -26 6 -9 4 -27 6
-39 4z m-66 -28 c-3 -3 -12 -4 -19 -1 -8 3 -5 6 6 6 11 1 17 -2 13 -5z"/>
<path d="M2784 3351 c3 -4 -16 -7 -42 -7 -128 -1 -237 -16 -272 -37 -56 -34
-81 -70 -57 -81 9 -5 9 -7 0 -12 -9 -4 -6 -15 8 -41 19 -33 19 -38 5 -81 -21
-59 -20 -98 3 -147 27 -59 52 -76 154 -106 87 -24 92 -25 99 -8 8 20 30 27 98
31 l45 3 -38 17 c-34 16 -43 38 -15 38 6 0 30 10 54 22 38 18 49 20 81 10 22
-6 53 -8 73 -3 l35 7 -34 7 c-19 4 -48 18 -65 31 -17 13 -55 35 -83 50 -29 14
-53 28 -53 30 0 2 17 0 38 -5 20 -5 40 -9 43 -9 3 0 23 -13 44 -30 51 -41 69
-38 23 5 -41 38 -118 65 -187 65 l-46 0 29 15 c16 9 37 14 47 13 9 -2 26 5 37
15 11 10 40 21 64 23 67 8 89 14 84 23 -8 12 16 29 36 26 14 -3 16 0 8 15 -5
9 -6 20 -3 24 3 3 -1 6 -10 6 -9 0 -33 16 -53 34 -31 29 -43 34 -68 30 -21 -4
-27 -3 -18 4 10 7 3 12 -27 19 -23 6 -39 8 -37 4z m43 -17 c-3 -3 -12 -4 -19
-1 -8 3 -5 6 6 6 11 1 17 -2 13 -5z"/>
<path d="M3010 3246 c0 -2 7 -7 16 -10 8 -3 12 -2 9 4 -6 10 -25 14 -25 6z"/>
<path d="M3240 3070 c0 -5 7 -10 16 -10 8 0 12 5 9 10 -3 6 -10 10 -16 10 -5
0 -9 -4 -9 -10z"/>
<path d="M3321 2990 c-1 -3 -4 -21 -7 -40 -2 -19 -8 -46 -13 -60 -5 -14 -12
-61 -15 -105 -3 -44 -3 -73 0 -65 3 8 14 33 24 55 23 51 29 96 20 165 -4 30
-8 53 -9 50z"/>
<path d="M1328 2818 c-3 -24 -2 -65 2 -93 6 -43 8 -37 9 43 1 98 -3 119 -11
50z"/>
<path d="M3200 2845 c0 -15 -2 -17 -9 -6 -17 27 -19 -6 -4 -53 14 -41 14 -54
4 -80 -20 -49 -18 -61 9 -64 33 -4 46 30 45 116 -1 50 -5 66 -23 84 -21 22
-22 22 -22 3z"/>
<path d="M1414 2742 c-5 -18 -9 -21 -16 -10 -7 9 -8 4 -4 -14 4 -16 2 -28 -2
-28 -5 0 -9 -14 -10 -32 -1 -25 2 -29 9 -18 8 12 10 9 6 -10 -7 -38 6 -72 31
-81 28 -10 29 5 3 47 -16 26 -17 39 -9 89 9 60 4 97 -8 57z"/>
<path d="M1820 2658 c0 -14 22 -20 47 -13 14 3 23 9 19 12 -8 9 -66 10 -66 1z"/>
<path d="M1990 2609 c0 -5 5 -7 10 -4 6 3 10 8 10 11 0 2 -4 4 -10 4 -5 0 -10
-5 -10 -11z"/>
<path d="M3240 2589 c0 -5 5 -7 10 -4 6 3 10 8 10 11 0 2 -4 4 -10 4 -5 0 -10
-5 -10 -11z"/>
<path d="M2075 2580 c-3 -6 -26 -8 -50 -6 -41 3 -47 0 -71 -31 -16 -21 -32
-32 -41 -29 -8 3 -11 1 -8 -4 3 -5 -7 -23 -21 -40 -35 -39 -56 -93 -58 -150
-1 -25 -7 -55 -14 -66 -6 -12 -9 -23 -7 -26 2 -2 6 -20 8 -41 5 -40 22 -67 43
-67 8 0 14 -4 14 -9 0 -6 8 -9 18 -9 32 1 73 -11 107 -32 19 -12 39 -19 45
-15 6 3 22 -3 36 -14 15 -12 33 -21 41 -21 8 0 22 -8 33 -17 14 -14 36 -18 89
-18 39 0 71 -3 71 -7 0 -10 -8 -11 -81 -13 -31 -1 -61 -5 -67 -9 -6 -3 -13 -2
-17 4 -3 5 -12 10 -18 10 -7 0 1 -11 17 -23 50 -37 83 -72 78 -85 -2 -8 8 -12
28 -12 33 0 70 -15 82 -34 4 -6 17 0 34 17 15 15 31 27 35 27 5 0 9 6 9 14 0
8 6 21 13 28 22 22 38 58 31 69 -3 6 -17 8 -31 4 -34 -8 -63 2 -56 21 3 8 11
13 17 11 18 -7 78 28 122 70 39 38 99 67 116 57 4 -3 25 8 45 25 31 26 38 28
50 15 17 -16 33 -18 33 -4 0 6 4 10 9 10 9 0 27 -72 24 -97 0 -7 2 -13 6 -13
8 0 71 150 71 168 0 7 5 12 11 12 15 0 3 36 -31 93 -16 26 -27 53 -24 60 2 7
-9 23 -26 35 -17 13 -28 27 -26 31 3 5 -3 16 -14 26 -11 10 -17 22 -14 26 3 5
-2 6 -10 3 -9 -3 -16 -2 -16 4 0 5 -9 12 -21 15 -14 4 -18 10 -13 18 5 9 2 10
-10 6 -10 -4 -25 -3 -35 3 -14 7 -23 4 -40 -15 -20 -24 -30 -82 -12 -70 12 7
41 -22 41 -40 0 -13 13 -35 83 -138 10 -16 16 -35 13 -43 -3 -8 -33 -28 -66
-43 -53 -23 -70 -27 -133 -23 -81 5 -92 5 -237 -1 -58 -2 -139 -10 -180 -16
-46 -8 -96 -10 -130 -5 -30 4 -58 7 -62 6 -19 -5 -5 32 22 60 28 28 41 56 20
43 -5 -3 -10 3 -10 13 0 11 -7 23 -16 26 -14 5 -14 9 -3 23 8 9 28 22 46 30
24 9 31 17 26 30 -4 10 -2 14 4 10 6 -4 8 11 5 43 -5 57 14 86 51 76 18 -4 27
1 41 24 14 26 15 30 2 30 -8 0 -18 -5 -21 -10z m467 -442 c-7 -7 -12 -8 -12
-2 0 6 3 14 7 17 3 4 9 5 12 2 2 -3 -1 -11 -7 -17z m-44 -11 c2 -11 -6 -19
-25 -23 -15 -4 -34 -16 -41 -26 -15 -21 -88 -26 -95 -5 -3 9 -9 7 -24 -5 -28
-25 -90 -24 -98 2 -10 33 4 41 63 39 32 -1 75 5 98 14 29 11 45 12 52 5 8 -8
16 -6 28 6 19 20 38 16 42 -7z m-380 -14 c2 -8 -5 -13 -17 -13 -12 0 -21 6
-21 16 0 18 31 15 38 -3z m79 -8 c3 -9 3 -18 0 -21 -10 -10 -47 7 -47 22 0 19
39 18 47 -1z"/>
<path d="M2445 2434 c-19 -14 -17 -14 19 -10 21 3 44 10 49 15 17 17 -45 13
-68 -5z"/>
<path d="M1806 2411 c-3 -5 1 -11 9 -15 9 -3 15 0 15 9 0 16 -16 20 -24 6z"/>
<path d="M2052 2405 c32 -38 39 -44 53 -39 21 9 7 31 -27 43 -40 14 -41 14
-26 -4z"/>
<path d="M2241 2362 c-9 -19 -9 -28 -2 -30 6 -2 9 -8 6 -13 -4 -5 -22 -2 -42
6 -41 17 -56 19 -30 4 9 -5 17 -19 17 -29 0 -11 4 -20 10 -20 5 0 26 -16 46
-35 37 -36 69 -44 105 -25 10 6 19 16 19 23 0 7 9 23 20 35 12 12 16 22 9 22
-6 0 -9 6 -6 14 10 25 -17 38 -48 24 -23 -10 -28 -10 -36 4 -5 8 -19 22 -32
31 -23 15 -25 15 -36 -11z"/>
<path d="M2020 2270 c0 -5 5 -10 10 -10 6 0 10 5 10 10 0 6 -4 10 -10 10 -5 0
-10 -4 -10 -10z"/>
<path d="M2221 1754 c0 -11 3 -14 6 -6 3 7 2 16 -1 19 -3 4 -6 -2 -5 -13z"/>
<path d="M3190 1700 c61 -85 28 -218 -102 -417 -253 -388 -354 -557 -421 -704
-54 -122 -217 -508 -217 -516 0 -18 343 28 510 68 526 129 1041 476 1330 900
l38 55 -31 17 c-31 17 -87 15 -112 -3 -23 -18 -309 -43 -340 -30 -14 6 -4 9
35 9 86 2 189 19 238 41 55 25 57 23 -98 100 -58 29 -130 70 -160 90 -79 53
-105 64 -204 89 -70 17 -98 30 -128 56 -53 48 -117 87 -130 79 -7 -5 -8 -3 -3
6 6 10 4 12 -8 7 -12 -4 -14 -2 -10 10 5 13 2 15 -11 10 -9 -4 -15 -3 -12 2 3
4 -6 14 -19 21 -13 7 -22 17 -19 22 3 5 2 8 -3 7 -16 -3 -36 1 -31 6 7 7 -90
105 -103 105 -6 0 -1 -13 11 -30z"/>
<path d="M2825 1634 c-66 -51 -227 -125 -308 -141 -27 -6 -28 -5 -16 15 18 29
-2 52 -30 35 -13 -8 -21 -9 -29 -1 -8 8 -15 8 -26 -1 -8 -7 -17 -8 -20 -3 -3
5 -22 6 -43 3 -21 -4 -56 -2 -77 4 -30 8 -40 7 -43 -2 -3 -7 -12 -13 -20 -13
-10 0 -13 -6 -9 -16 5 -13 1 -14 -24 -9 -42 9 -38 1 15 -29 25 -15 45 -31 45
-36 0 -5 20 -19 45 -30 48 -22 59 -40 24 -40 -11 0 -18 -4 -14 -10 3 -5 12 -7
20 -4 8 3 20 2 27 -3 16 -10 138 -11 138 0 0 4 10 7 22 7 21 0 22 0 2 -18 -10
-11 -37 -40 -59 -66 -115 -134 -108 -128 -164 -134 -28 -2 -51 -1 -51 4 0 5
-28 8 -62 7 -83 -2 -101 10 -129 94 -12 37 -34 93 -48 123 l-26 55 -9 -52 c-5
-29 -12 -53 -16 -53 -4 0 -12 15 -17 33 l-10 32 -12 -30 c-13 -31 -29 -110
-33 -158 -2 -18 -7 -26 -16 -22 -19 7 18 -38 105 -127 l75 -77 66 7 c62 6 80
15 249 116 101 60 181 111 179 113 -2 2 -30 -3 -61 -11 -32 -8 -54 -11 -49 -7
13 11 87 31 114 31 19 0 272 146 335 194 19 14 19 15 -10 11 -16 -2 -24 -2
-17 1 6 3 12 23 12 44 0 21 5 42 11 45 7 5 5 13 -5 24 -15 16 -15 21 1 52 9
19 25 45 35 58 19 25 23 42 11 40 -5 0 -39 -25 -78 -55z"/>
<path d="M3100 1661 c0 -12 -5 -31 -11 -43 -6 -11 -9 -22 -6 -24 2 -3 12 12
22 32 12 26 14 39 6 47 -8 8 -11 5 -11 -12z"/>
<path d="M2117 1519 c7 -7 15 -10 18 -7 3 3 -2 9 -12 12 -14 6 -15 5 -6 -5z"/>
<path d="M1655 1208 c-33 -18 -72 -33 -86 -34 -33 -2 -329 -150 -424 -212 -38
-25 -75 -45 -82 -45 -7 0 -10 -3 -8 -7 4 -7 -62 -70 -73 -70 -3 0 10 16 29 36
l34 37 -34 -19 c-43 -24 -129 -119 -161 -178 l-24 -45 24 -27 c67 -71 310
-237 479 -326 l74 -39 30 73 c137 334 171 401 222 428 14 7 22 17 19 22 -3 4
-1 8 5 8 5 0 13 15 17 32 3 18 13 37 21 43 17 12 18 27 15 178 -1 59 -6 107
-10 107 -4 0 -24 -22 -44 -49 -39 -52 -104 -108 -114 -98 -4 3 32 50 80 103
112 125 113 135 11 82z m-125 -73 c-30 -19 -59 -35 -65 -35 -5 1 4 8 20 17 17
9 41 24 54 34 13 11 29 19 35 19 6 0 -14 -16 -44 -35z"/>
<path d="M598 902 c18 -22 65 -75 105 -118 l72 -77 7 49 c12 91 9 151 -8 165
-10 8 -53 15 -112 17 l-96 5 32 -41z"/>
<path d="M1929 903 c-44 -37 -101 -127 -139 -221 -29 -69 -54 -128 -68 -157
-15 -31 19 17 43 60 15 28 31 55 36 61 5 6 8 18 6 25 -2 8 -2 11 0 7 13 -22
42 -5 62 36 25 54 37 63 44 34 7 -26 -9 -116 -24 -135 -6 -7 -8 -13 -4 -13 4
0 2 -7 -5 -15 -7 -8 -10 -15 -7 -15 3 0 -5 -25 -19 -55 -13 -31 -24 -65 -24
-75 0 -12 -11 -25 -25 -32 -25 -11 -34 -43 -15 -50 6 -2 -6 -45 -29 -101 l-39
-97 52 -15 c46 -14 185 -44 276 -59 l35 -6 19 102 c11 56 31 122 44 147 14 25
37 71 53 101 16 30 29 52 29 48 0 -3 35 29 78 72 42 43 84 80 92 82 17 5 9 17
-94 131 -39 43 -77 76 -85 75 -10 -2 -15 3 -13 13 1 8 -11 28 -27 43 -24 23
-32 26 -49 17 -12 -6 -29 -11 -40 -11 -19 0 -51 -27 -51 -45 0 -5 -5 -11 -13
-13 -9 -2 -8 0 2 7 9 6 10 11 3 11 -6 0 -19 -8 -29 -17 -20 -20 -54 -25 -54
-7 0 8 13 23 29 35 25 18 28 24 18 40 -16 26 -30 24 -68 -8z"/>
</g>
</svg>
